<?xml version="1.0" encoding="UTF-8"?>
<!-- Generated by Pixelmator Pro 3.7.1 -->
<svg width="2048" height="2048" viewBox="0 0 2048 2048" xmlns="http://www.w3.org/2000/svg">
    <path id="Form" fill="#ffffff" fill-rule="evenodd" stroke="none" d="M 967.5 1660.324219 C 959.25 1660.513062 948.224976 1660.522461 943 1660.344971 C 937.775024 1660.167603 926.525024 1659.306274 918 1658.430908 C 909.474976 1657.55542 896.650024 1655.758179 889.5 1654.437012 C 882.349976 1653.115723 870.424988 1650.433228 863 1648.47583 C 855.575012 1646.518311 842.974976 1642.720459 835 1640.036011 C 827.025024 1637.351563 815.099976 1632.724121 808.5 1629.75293 C 801.900024 1626.781616 791.363403 1621.540405 785.085388 1618.105835 C 778.807312 1614.671265 768.776123 1608.754395 762.793762 1604.95752 C 756.811401 1601.1604 746.7099 1594.181763 740.345947 1589.449219 C 733.982056 1584.716797 723.264343 1575.592163 716.52887 1569.172363 C 709.793335 1562.752563 698.318665 1551.199951 691.02948 1543.5 C 683.740356 1535.800049 673.383667 1523.650024 668.014648 1516.5 C 662.645691 1509.349976 654.879944 1498.099976 650.757507 1491.5 C 646.635071 1484.900024 640.990234 1475.403076 638.21344 1470.395874 C 635.436584 1465.388672 630.934509 1456.838623 628.208801 1451.395874 C 625.483093 1445.953125 620.666382 1435.650024 617.505066 1428.5 C 614.343689 1421.349976 609.076904 1408.316162 605.800964 1399.535889 C 602.525085 1390.755493 597.419434 1375.350586 594.455017 1365.302734 C 591.490662 1355.254883 586.990662 1337.727051 584.455017 1326.352051 C 581.919373 1314.976807 578.109497 1295.281738 575.988647 1282.584961 C 573.867737 1269.888184 571.213379 1252.074951 570.090027 1243 C 568.966675 1233.925049 567.345947 1219.300049 566.488403 1210.5 C 565.630798 1201.699951 564.651428 1181.258057 564.311951 1165.073608 C 563.867859 1143.901855 564.018616 1134.789063 564.849304 1132.588379 C 565.484314 1130.906006 567.47522 1128.058105 569.273499 1126.259766 C 571.622986 1123.9104 574.084778 1122.674805 578.021545 1121.869507 C 581.928711 1121.070313 611.608093 1120.863281 681.5 1121.147705 C 771.631958 1121.514648 779.754578 1121.684082 782.671143 1123.258301 C 784.415283 1124.199707 786.837708 1126.367676 788.054321 1128.076172 C 789.270874 1129.78479 790.482727 1133.102783 790.747253 1135.449707 C 791.058167 1138.208496 790.656006 1140.915771 789.609558 1143.108398 C 788.719238 1144.973877 786.392944 1147.587646 784.43988 1148.916992 C 782.486816 1150.246338 778.776367 1151.681885 776.194458 1152.107422 C 773.612488 1152.532715 745.810608 1152.907593 714.412476 1152.94043 C 683.014343 1152.973145 645.006775 1153.299561 629.951172 1153.665771 C 603.190491 1154.31665 602.526245 1154.382813 600.288757 1156.620361 C 598.124512 1158.784668 598.000244 1159.659546 598.004089 1172.70459 C 598.006287 1180.291992 598.465881 1192.800049 599.025391 1200.5 C 599.584839 1208.199951 600.961487 1222.766846 602.084595 1232.870972 C 603.207703 1242.974976 605.202698 1258.050049 606.517883 1266.370972 C 607.833069 1274.691895 610.525574 1289.824951 612.501221 1300 C 614.476929 1310.175049 617.843445 1325.25 619.982361 1333.5 C 622.121277 1341.75 625.977417 1355.020264 628.551575 1362.989502 C 631.125671 1370.95874 635.820801 1384.233643 638.985168 1392.489502 C 642.149536 1400.745239 647.864014 1414.25 651.684021 1422.5 C 655.504028 1430.75 662.361328 1444.25 666.922485 1452.5 C 671.483643 1460.75 678.958252 1473.125 683.532776 1480 C 688.107361 1486.875 695.944763 1497.738525 700.94928 1504.141357 C 705.953857 1510.543945 714.875061 1520.859131 720.774231 1527.063721 C 726.673401 1533.268311 735.775024 1542.162476 741 1546.828613 C 746.224976 1551.494629 755.450012 1559.033813 761.5 1563.582275 C 767.549988 1568.130615 777.224976 1574.820923 783 1578.449463 C 788.775024 1582.078125 799.799988 1588.26416 807.5 1592.196289 C 815.200012 1596.128418 826.224976 1601.240234 832 1603.555908 C 837.775024 1605.871582 848.799988 1609.80957 856.5 1612.307129 C 864.200012 1614.804565 876.125 1618.031982 883 1619.479126 C 889.875 1620.92627 901.128052 1622.975342 908.006775 1624.032715 C 914.885559 1625.090088 929.285522 1626.4646 940.006775 1627.087158 C 950.728088 1627.709717 966.769226 1627.937134 975.65387 1627.592285 C 984.538513 1627.247559 997.429138 1626.307861 1004.299622 1625.50415 C 1011.170166 1624.700439 1022.350891 1622.955688 1029.145752 1621.626953 C 1035.940552 1620.298096 1047.125 1617.752441 1054 1615.969971 C 1060.875 1614.1875 1071.469849 1611.020386 1077.544189 1608.931885 C 1083.618408 1606.843384 1094.643433 1602.38623 1102.044189 1599.027222 C 1109.444824 1595.668213 1120.449951 1590.191895 1126.5 1586.857666 C 1132.550049 1583.523438 1141.94873 1577.886597 1147.386108 1574.331177 C 1152.823608 1570.775757 1161.598511 1564.575928 1166.886108 1560.553833 C 1172.173828 1556.531738 1181.447144 1548.693237 1187.49353 1543.13501 C 1193.539917 1537.57666 1202.927124 1528.185059 1208.353882 1522.264526 C 1213.78064 1516.343994 1222.108521 1506.324341 1226.860352 1499.998535 C 1231.612183 1493.672852 1240.132935 1481.40918 1245.795532 1472.745972 C 1251.458008 1464.082764 1259.426514 1450.63501 1263.503174 1442.861816 C 1267.579834 1435.088867 1273.404175 1423.14209 1276.446289 1416.313721 C 1279.488281 1409.485352 1284.660889 1396.519043 1287.940796 1387.499756 C 1291.220825 1378.480469 1296.380005 1362.772949 1299.405762 1352.594238 C 1302.431641 1342.415405 1306.487061 1326.980225 1308.417969 1318.293701 C 1310.348877 1309.607178 1313.035645 1296.425049 1314.38855 1289 C 1315.741577 1281.574951 1318.002808 1266.5 1319.413696 1255.5 C 1320.824585 1244.5 1322.635254 1228.525024 1323.437378 1220 C 1324.23938 1211.474976 1325.432983 1194.959717 1326.0896 1183.299438 C 1327.051758 1166.216309 1327.035156 1161.499268 1326.004639 1159.01123 C 1325.30127 1157.312988 1323.981079 1155.525024 1323.070923 1155.037964 C 1322.160767 1154.550781 1317.63562 1153.634766 1313.015137 1153.002075 C 1308.394531 1152.369385 1303.386475 1151.216919 1301.885864 1150.440918 C 1300.385376 1149.665039 1298.109741 1147.560913 1296.828857 1145.765137 C 1295.068481 1143.296875 1294.5 1141.157471 1294.5 1137 C 1294.5 1132.795166 1295.06543 1130.707275 1296.901123 1128.133545 C 1298.22168 1126.28186 1301.146606 1123.929199 1303.401123 1122.905518 C 1306.929565 1121.302979 1310.134888 1121.040894 1326.434326 1121.021973 C 1343.743286 1121.001953 1345.746704 1121.183105 1349.77417 1123.13269 C 1352.202759 1124.30835 1355.541016 1127.113037 1357.213379 1129.38269 C 1360.246948 1133.5 1360.246948 1133.5 1359.653931 1169.292969 C 1359.176758 1198.085693 1359.313965 1205.183228 1360.355225 1205.582764 C 1361.067139 1205.855957 1367.228394 1203.992676 1374.046753 1201.442139 C 1380.865234 1198.891479 1389.831543 1195.937256 1393.972046 1194.877197 C 1398.112427 1193.817139 1406.675049 1192.434082 1413 1191.803589 C 1422.840454 1190.822632 1426.231689 1190.906372 1436.5 1192.383545 C 1443.099976 1193.333008 1452.550049 1195.460815 1457.5 1197.111938 C 1462.449951 1198.762939 1469.875 1201.922119 1474 1204.132202 C 1478.125 1206.342285 1484.775269 1210.649048 1488.77832 1213.702881 C 1492.781494 1216.756714 1498.775757 1222.222656 1502.098877 1225.849243 C 1505.421997 1229.47583 1510.155884 1235.473999 1512.61853 1239.178345 C 1515.081177 1242.88269 1519.158569 1250.320557 1521.679321 1255.706787 C 1524.200195 1261.093018 1527.664063 1270.900024 1529.377075 1277.5 C 1532.404053 1289.162842 1532.491699 1290.11792 1532.495728 1311.5 C 1532.498535 1325.788818 1532.037354 1335.77832 1531.180054 1340 C 1530.453979 1343.574951 1528.824951 1350.099976 1527.559937 1354.5 C 1526.2948 1358.900024 1523.402588 1367.246826 1521.132813 1373.048584 C 1518.862915 1378.850342 1514.334473 1388.115479 1511.069458 1393.637817 C 1507.804443 1399.160156 1501.673828 1408.363281 1497.445923 1414.089111 C 1493.217896 1419.815186 1484.525391 1429.677734 1478.129272 1436.005859 C 1471.733154 1442.334106 1462.675049 1450.585693 1458 1454.342773 C 1453.324951 1458.099731 1443.875 1464.914185 1437 1469.48584 C 1430.125 1474.057617 1419.775024 1480.291992 1414 1483.339966 C 1408.224976 1486.387939 1397.425049 1491.348022 1390 1494.362305 C 1382.574951 1497.376465 1371.324951 1501.408081 1365 1503.321411 C 1358.675049 1505.234619 1348.105591 1508.00708 1341.512573 1509.482422 C 1334.919434 1510.957642 1323.669434 1513.020508 1316.512573 1514.06665 C 1309.355591 1515.112793 1293.012207 1516.615479 1280.193726 1517.40625 C 1262.73645 1518.48291 1256.294434 1519.2323 1254.523926 1520.392334 C 1253.223999 1521.244141 1248.329346 1526.341797 1243.646973 1531.720459 C 1238.9646 1537.099243 1231.166016 1545.660645 1226.316772 1550.745728 C 1221.467529 1555.830933 1212.550049 1564.550049 1206.5 1570.12146 C 1200.449951 1575.692871 1190.324951 1584.14502 1184 1588.904053 C 1177.675049 1593.663086 1166.948853 1601.069824 1160.164185 1605.363525 C 1153.379517 1609.657227 1141.904541 1616.194702 1134.664185 1619.891479 C 1127.42395 1623.588135 1116.550049 1628.779907 1110.5 1631.428711 C 1104.449951 1634.077515 1092.76416 1638.474243 1084.531494 1641.199219 C 1076.298828 1643.924072 1062.510376 1647.924316 1053.890625 1650.088501 C 1045.270752 1652.252686 1031.306519 1655.10376 1022.85907 1656.424438 C 1014.41156 1657.744995 1001.875 1659.085449 995 1659.403198 C 988.125 1659.720947 975.75 1660.135498 967.5 1660.324219 Z M 1298.491455 1482.660034 C 1305.646118 1482.315186 1316.675049 1481.102539 1323 1479.964844 C 1329.324951 1478.827393 1338.893066 1476.785645 1344.262329 1475.427734 C 1349.631714 1474.069824 1358.856689 1471.230469 1364.762329 1469.117798 C 1370.668091 1467.005127 1380.675049 1462.9104 1387 1460.018066 C 1393.324951 1457.125977 1402.775024 1452.319824 1408 1449.337891 C 1413.224976 1446.355957 1421.432129 1441.104492 1426.238037 1437.668091 C 1431.043823 1434.231689 1439.03418 1427.932129 1443.994263 1423.668945 C 1448.954346 1419.406006 1456.643677 1411.773926 1461.081909 1406.708984 C 1465.52002 1401.644043 1472.338623 1392.775024 1476.234375 1387 C 1480.130005 1381.224976 1485.242432 1372.449951 1487.595093 1367.5 C 1489.947876 1362.550049 1493.018921 1354.978149 1494.419678 1350.673706 C 1495.820435 1346.369263 1497.761475 1338.719238 1498.733276 1333.673706 C 1499.838745 1327.93335 1500.5 1319.821777 1500.5 1312 C 1500.5 1305.125 1499.934814 1296.213623 1499.244141 1292.197021 C 1498.553345 1288.18042 1496.42688 1280.851074 1494.518555 1275.909912 C 1492.610107 1270.968506 1489.038574 1263.818115 1486.581543 1260.02002 C 1484.124512 1256.221802 1479.362793 1250.362793 1476 1247 C 1472.637207 1243.637207 1466.821777 1238.903564 1463.076782 1236.481079 C 1459.331909 1234.058594 1453.845093 1231.09668 1450.883911 1229.89917 C 1447.922729 1228.70166 1443.025024 1227.116455 1440 1226.376465 C 1436.787598 1225.59082 1428.847534 1225.024658 1420.909912 1225.015625 C 1410.61792 1225.003784 1405.400391 1225.48291 1399.409912 1226.990112 C 1395.059448 1228.084717 1387.417725 1230.989502 1382.428223 1233.44519 C 1377.438721 1235.900879 1370.70166 1239.971558 1367.456909 1242.491211 C 1364.21228 1245.010742 1359.921997 1249.051392 1357.922974 1251.470459 C 1354.820435 1255.224854 1353.984985 1257.378906 1352.216187 1266.184326 C 1351.076416 1271.85791 1348.341919 1285.724976 1346.139648 1297 C 1343.937256 1308.275024 1340.270142 1325.342285 1337.990479 1334.92749 C 1335.710693 1344.512451 1332.029175 1358.6875 1329.809326 1366.42749 C 1327.589478 1374.167358 1323.85083 1385.900024 1321.501465 1392.5 C 1319.151978 1399.099976 1315.146484 1409.687012 1312.60022 1416.026611 C 1310.053955 1422.366455 1305.011719 1433.616455 1301.395386 1441.026611 C 1297.778931 1448.437012 1292.116089 1460.250244 1288.811157 1467.27832 C 1283.645142 1478.264404 1282.990234 1480.283325 1284.142578 1481.671875 C 1285.30249 1483.069458 1287.234253 1483.202515 1298.491455 1482.660034 Z"/>
    <path id="path1" fill="#ffffff" fill-rule="evenodd" stroke="none" d="M 969 1585.476318 C 956.075012 1585.687866 941.28717 1585.483521 936.138184 1585.022217 C 930.989197 1584.560791 922.214172 1583.427124 916.638184 1582.502686 C 911.062195 1581.578369 902.328308 1579.970459 897.229553 1578.929443 C 892.130798 1577.88855 882.680786 1575.44458 876.229553 1573.498291 C 869.778259 1571.552124 859.549988 1568.106689 853.5 1565.841675 C 847.450012 1563.57666 837.549988 1559.464478 831.5 1556.703369 C 825.450012 1553.942383 816.674988 1549.531982 812 1546.902466 C 807.325012 1544.273071 799.6427 1539.481445 794.928162 1536.254272 C 790.213684 1533.027222 781.663635 1526.591064 775.928162 1521.95166 C 770.192688 1517.312378 761.432495 1509.462891 756.461182 1504.508301 C 751.489807 1499.553711 743.553772 1491 738.8255 1485.5 C 734.097229 1480 726.524536 1470.324951 721.997314 1464 C 717.470093 1457.675049 710.707825 1447.324951 706.969971 1441 C 703.232178 1434.675049 697.121033 1423.435547 693.389771 1416.023438 C 689.658447 1408.611328 684.656921 1398.119141 682.275269 1392.70752 C 679.893616 1387.295898 675.911377 1376.935303 673.425842 1369.684082 C 670.940369 1362.432861 667.109253 1350.283569 664.912292 1342.685791 C 662.715393 1335.087891 659.535217 1323.162842 657.845276 1316.185791 C 656.138733 1309.139893 654.539001 1299.361572 654.24707 1294.191528 C 653.721375 1284.883057 653.721375 1284.883057 659.110657 1279.691528 C 662.978882 1275.965332 668.028015 1272.760132 677 1268.335693 C 683.875 1264.94519 695.349976 1260.052979 702.5 1257.463867 C 709.650024 1254.874878 722.326172 1251.029541 730.66925 1248.918701 C 739.012329 1246.807739 749.812317 1244.5 754.66925 1243.790283 C 759.526123 1243.080566 771.867126 1242.5 782.093567 1242.5 C 795.53241 1242.5 803.710693 1243.010254 811.593567 1244.340454 C 817.592102 1245.352661 827.674988 1247.506104 834 1249.125732 C 840.325012 1250.745361 850.900024 1253.901489 857.5 1256.139404 C 864.099976 1258.377441 876.212097 1262.920898 884.415771 1266.236084 C 898.981445 1272.12207 899.497803 1272.25 906.415771 1271.687622 C 910.312073 1271.37085 917.549988 1269.919189 922.5 1268.46167 C 927.450012 1267.004028 936.224976 1263.697266 942 1261.113281 C 947.775024 1258.529297 955.705078 1254.5354 959.622375 1252.238037 C 963.539612 1249.940552 970.497253 1245.278564 975.083679 1241.87793 C 979.670105 1238.477295 987.87793 1231.376099 993.323303 1226.097412 C 998.768616 1220.818848 1005.9505 1213.125 1009.28302 1209 C 1012.61554 1204.875 1018.649719 1196.480591 1022.692322 1190.345703 C 1026.734863 1184.210938 1032.915894 1173.185913 1036.427856 1165.845703 C 1039.939819 1158.505615 1045.041748 1146.425049 1047.765381 1139 C 1050.489014 1131.574951 1055.970703 1115.824951 1059.947021 1104 C 1063.92334 1092.175049 1068.984497 1078.230225 1071.194092 1073.011475 C 1073.403809 1067.792847 1077.247192 1060.36792 1079.734985 1056.511475 C 1082.2229 1052.655151 1087.463989 1046.349976 1091.381836 1042.5 C 1095.708252 1038.248535 1100.860352 1034.352295 1104.502686 1032.577148 C 1107.80127 1030.969727 1112.974976 1029.064209 1116 1028.342773 C 1119.025024 1027.62146 1123.590088 1027.02417 1126.144653 1027.015625 C 1128.699219 1027.00708 1133.64917 1027.910889 1137.144653 1029.02417 C 1140.640137 1030.137451 1144.991699 1031.851685 1146.814941 1032.833496 C 1148.638062 1033.815186 1152.809814 1037.265869 1156.085449 1040.501587 C 1159.361084 1043.737305 1163.194336 1048.741943 1164.603882 1051.622803 C 1166.013428 1054.503906 1167.659546 1060.044678 1168.261841 1063.935913 C 1169.072632 1069.174072 1169.053711 1073.021362 1168.188965 1078.755371 C 1167.438599 1083.731201 1165.823242 1088.865479 1163.670654 1093.116821 C 1161.828003 1096.756104 1156.760742 1104.31543 1152.410156 1109.915527 C 1148.05957 1115.515625 1141.470215 1124.238037 1137.767334 1129.298828 C 1134.064331 1134.359375 1129.21167 1142.099976 1126.983643 1146.5 C 1124.755737 1150.900024 1122.421753 1157.295166 1121.797119 1160.711304 C 1120.799927 1166.165039 1120.886963 1167.422852 1122.510864 1171.023926 C 1123.528076 1173.279785 1125.642456 1176.204346 1127.209595 1177.522949 C 1128.776733 1178.841553 1131.63855 1180.216797 1133.569336 1180.578979 C 1135.536255 1180.947998 1139.151001 1180.6698 1141.789917 1179.946289 C 1145.555176 1178.914063 1148.116455 1177.03479 1154.55835 1170.577637 C 1158.990479 1166.134888 1164.47229 1159.625732 1166.740112 1156.112915 C 1169.007935 1152.599976 1173.566284 1144.724976 1176.869873 1138.612915 C 1180.173462 1132.500732 1188.575928 1115.349976 1195.541992 1100.5 C 1202.508057 1085.650024 1212.05188 1066.300049 1216.75061 1057.5 C 1221.449341 1048.699951 1228.578369 1036.301636 1232.592896 1029.94812 C 1236.607544 1023.594604 1243.338379 1013.775269 1247.550537 1008.127319 C 1251.762573 1002.479492 1259.549438 993.467163 1264.854492 988.100098 C 1270.159546 982.73291 1277.199951 976.5271 1280.5 974.309204 C 1283.800049 972.091431 1288.964844 969.030151 1291.977539 967.506348 C 1294.990112 965.982422 1299.940186 963.876343 1302.977539 962.82605 C 1306.014893 961.775635 1311.875 960.675293 1316 960.380615 C 1321.710938 959.972778 1325.373169 960.337036 1331.352661 961.907837 C 1335.671631 963.042358 1341.552612 965.313721 1344.421631 966.9552 C 1347.290649 968.59668 1352.207031 972.633057 1355.346924 975.924927 C 1358.875366 979.624023 1362.381104 984.700562 1364.525269 989.215698 C 1366.7948 993.994507 1368.312134 999.048828 1368.912354 1003.828857 C 1369.467529 1008.25061 1369.468872 1013.685059 1368.915771 1017.590576 C 1368.413086 1021.140503 1367.130127 1026.524902 1366.064819 1029.555908 C 1364.999512 1032.586914 1362.085938 1037.928345 1359.59021 1041.425781 C 1357.094482 1044.923218 1352.228271 1050.245361 1348.776245 1053.252686 C 1345.324341 1056.26001 1339.349976 1060.764648 1335.5 1063.262817 C 1331.650024 1065.760986 1323.775024 1070.609375 1318 1074.036743 C 1312.224976 1077.464111 1304.574951 1082.613037 1301 1085.47876 C 1297.425049 1088.344238 1290 1095.414551 1284.5 1101.190186 C 1279 1106.96582 1272.803955 1114.573364 1270.730957 1118.095703 C 1268.658081 1121.618042 1265.567627 1128.099976 1263.863281 1132.5 C 1262.159058 1136.900024 1259.805054 1144.324951 1258.632324 1149 C 1256.957275 1155.677002 1256.5 1160.531738 1256.5 1171.636963 C 1256.5 1181.364258 1257.063232 1188.508301 1258.305786 1194.539795 C 1259.29895 1199.361084 1261.609497 1206.949463 1263.44043 1211.402832 C 1265.27124 1215.856201 1268.845581 1223.878906 1271.383423 1229.230957 C 1273.921143 1234.583008 1276.506836 1240.883057 1277.129272 1243.230957 C 1278.052368 1246.712891 1277.871338 1250.17334 1276.147339 1262 C 1274.984863 1269.974976 1272.64978 1283.699951 1270.958374 1292.5 C 1269.266968 1301.300049 1266.111328 1315.763428 1263.945923 1324.640869 C 1261.780396 1333.518311 1257.951172 1347.171631 1255.436401 1354.981445 C 1252.921631 1362.79126 1248.148193 1376.00293 1244.828613 1384.340576 C 1241.509155 1392.678223 1236.119873 1405.125 1232.852539 1412 C 1229.585083 1418.875 1224.162354 1429.224976 1220.802002 1435 C 1217.441528 1440.775024 1211.645996 1450.046021 1207.922852 1455.602295 C 1204.199707 1461.158447 1197.4375 1470.383545 1192.89563 1476.102295 C 1188.35376 1481.821045 1177.856689 1493.293945 1169.568848 1501.5979 C 1161.281006 1509.901611 1150.900024 1519.54248 1146.5 1523.021973 C 1142.099976 1526.501343 1132.439819 1533.336182 1125.032837 1538.210449 C 1117.625977 1543.084717 1105.799683 1550.004639 1098.752441 1553.588135 C 1091.705078 1557.171753 1080.890259 1562.135376 1074.719482 1564.618652 C 1068.548828 1567.101807 1058.324951 1570.716797 1052 1572.651978 C 1045.675049 1574.587036 1035.586426 1577.288818 1029.580933 1578.656006 C 1023.575378 1580.023071 1012.775391 1582.030396 1005.580872 1583.116699 C 996.346252 1584.510864 985.59021 1585.204712 969 1585.476318 Z M 967 1559.311279 C 974.424988 1559.099365 985.900024 1558.460815 992.5 1557.892334 C 999.099976 1557.323853 1010.349976 1555.783691 1017.5 1554.469727 C 1024.650024 1553.15564 1034.397339 1550.95105 1039.160767 1549.570557 C 1043.924316 1548.189941 1053.757813 1544.747192 1061.013062 1541.9198 C 1068.268311 1539.092529 1079.220947 1534.210938 1085.352173 1531.072021 C 1091.483521 1527.932983 1101.148071 1522.470215 1106.829102 1518.932373 C 1112.510132 1515.394531 1121.960083 1508.924561 1127.829102 1504.554443 C 1133.69812 1500.18457 1144.625854 1490.509521 1152.112915 1483.054443 C 1159.600098 1475.599609 1169.301758 1464.972046 1173.672363 1459.437866 C 1178.042847 1453.903687 1185.165161 1443.778687 1189.499634 1436.937866 C 1193.834229 1430.097046 1200.448364 1418.875 1204.197754 1412 C 1207.947266 1405.125 1213.709229 1393.158203 1217.002197 1385.407227 C 1220.295166 1377.65625 1225.449951 1363.931152 1228.457275 1354.907227 C 1231.4646 1345.883301 1235.087769 1334.224976 1236.508789 1329 C 1237.92981 1323.775024 1239.745239 1316.205322 1240.543091 1312.178467 C 1241.574219 1306.974365 1241.69519 1304.299072 1240.96167 1302.928467 C 1240.394043 1301.867798 1239.157959 1301.011963 1238.214844 1301.026367 C 1237.271606 1301.041016 1233.481812 1303.178467 1229.792847 1305.776367 C 1226.104004 1308.37439 1218.229004 1313.94458 1212.292847 1318.154785 C 1206.356812 1322.36499 1196.763306 1328.312988 1190.973999 1331.372803 C 1185.184692 1334.432617 1175.509766 1339.007202 1169.473999 1341.538574 C 1163.438354 1344.070068 1152.38147 1347.872314 1144.903198 1349.988281 C 1137.424927 1352.104248 1126.417236 1354.659912 1120.441772 1355.667725 C 1111.667358 1357.147461 1104.086914 1357.5 1081.038574 1357.5 C 1053.931519 1357.5 1051.722534 1357.356689 1037 1354.643433 C 1028.474976 1353.072266 1016.482239 1350.490234 1010.349365 1348.905273 C 1004.216492 1347.320313 993.866516 1344.16333 987.349365 1341.889404 C 980.832214 1339.615723 968.525024 1334.744385 960 1331.064331 C 951.474976 1327.384277 929.875 1316.961426 912 1307.902344 C 894.125 1298.843262 873.424988 1289.012695 866 1286.056641 C 858.575012 1283.100708 847.549988 1279.160156 841.5 1277.300049 C 835.450012 1275.439697 825.099976 1272.828979 818.5 1271.498291 C 811.900024 1270.16748 801.325012 1268.558838 795 1267.92334 C 788.633911 1267.283691 778.803101 1267.044678 772.978821 1267.387817 C 767.1922 1267.72876 756.842163 1268.922607 749.978821 1270.040894 C 743.115479 1271.15918 733 1273.453125 727.5 1275.13855 C 722 1276.823975 713.461121 1279.754028 708.524658 1281.64978 C 703.588257 1283.54541 696.686523 1286.505859 693.187561 1288.228394 C 689.688599 1289.950928 685.453674 1292.64209 683.776611 1294.20874 C 680.89447 1296.901001 680.757507 1297.370605 681.277527 1302.778564 C 681.580078 1305.925293 683.40094 1314.574951 685.323853 1322 C 687.246765 1329.425049 690.488831 1340.675049 692.528442 1347 C 694.568054 1353.324951 698.921021 1365.25 702.20166 1373.5 C 705.4823 1381.75 710.846619 1394.125 714.122314 1401 C 717.39801 1407.875 722.611877 1417.775024 725.708679 1423 C 728.805481 1428.224976 734.032593 1436.550049 737.324463 1441.5 C 740.616272 1446.449951 746.502441 1454.543701 750.404846 1459.486084 C 754.30719 1464.428345 761.221436 1472.52832 765.769897 1477.486084 C 770.318298 1482.443726 777.968323 1490.053223 782.769897 1494.395996 C 787.571472 1498.73877 794.650024 1504.631592 798.5 1507.490967 C 802.349976 1510.350464 809.325012 1515.083496 814 1518.008789 C 818.674988 1520.934204 826.549988 1525.5354 831.5 1528.233887 C 836.450012 1530.932251 845.037476 1535.122314 850.583252 1537.544922 C 856.129028 1539.967773 864.880554 1543.327026 870.031067 1545.010132 C 875.18158 1546.693237 884.594116 1549.376831 890.947815 1550.973755 C 897.301514 1552.570557 906.549988 1554.551392 911.5 1555.375488 C 916.450012 1556.199463 925.450012 1557.361206 931.5 1557.956909 C 937.549988 1558.552734 944.974976 1559.187866 948 1559.368408 C 951.025024 1559.54895 959.575012 1559.523315 967 1559.311279 Z M 1081.5 1332.294678 C 1088.099976 1332.075928 1097.987915 1331.460938 1103.473267 1330.928467 C 1108.958496 1330.395752 1119.083496 1328.822754 1125.973267 1327.432861 C 1132.862915 1326.042969 1143.900024 1323.106445 1150.5 1320.906982 C 1157.099976 1318.707642 1167 1314.756104 1172.5 1312.125732 C 1178 1309.495361 1186.550049 1304.832642 1191.5 1301.76416 C 1196.449951 1298.695679 1204.550049 1293.16748 1209.5 1289.47937 C 1214.449951 1285.79126 1222.601196 1279.011963 1227.61377 1274.414551 C 1232.626343 1269.817139 1239.332031 1262.872314 1242.515015 1258.981567 C 1245.69812 1255.09082 1248.750122 1250.230713 1249.297119 1248.181152 C 1250.174805 1244.892944 1249.853271 1243.399414 1246.5625 1235.477417 C 1244.511353 1230.539795 1241.106201 1222.224976 1238.995605 1217 C 1236.884888 1211.775024 1234.437012 1204.125 1233.555786 1200 C 1232.674438 1195.875 1231.680176 1185.974976 1231.346313 1178 C 1230.898438 1167.303711 1231.149414 1160.745605 1232.303101 1153 C 1233.163208 1147.224976 1235.075684 1138.675049 1236.553101 1134 C 1238.030396 1129.324951 1241.418701 1121.153931 1244.08252 1115.842041 C 1246.746338 1110.530029 1252.310181 1101.691284 1256.446533 1096.200195 C 1260.583008 1090.709106 1268.073608 1082.530518 1273.092407 1078.025513 C 1278.111206 1073.520508 1286.331055 1066.806274 1291.358765 1063.10498 C 1296.386475 1059.403564 1304.775024 1053.747803 1310 1050.536865 C 1315.224976 1047.325684 1321.861572 1043.137207 1324.747925 1041.228882 C 1327.634277 1039.320557 1332.599243 1034.976318 1335.781128 1031.574707 C 1339.447266 1027.655762 1342.031128 1023.839355 1342.834961 1021.156616 C 1343.532593 1018.828125 1344.353638 1014.802856 1344.659546 1012.211548 C 1344.965332 1009.620239 1344.718506 1005.65686 1344.11084 1003.404175 C 1343.503052 1001.151367 1341.731689 997.551392 1340.174316 995.404175 C 1338.617065 993.256836 1335.391602 990.150024 1333.006958 988.5 C 1329.240845 985.894287 1327.608521 985.451416 1320.585449 985.130005 C 1314.937622 984.871582 1311.229126 985.230225 1308.284424 986.319458 C 1305.96582 987.177002 1301.29834 989.760132 1297.912231 992.05957 C 1294.526123 994.359009 1288.151123 999.898804 1283.745483 1004.370239 C 1279.339844 1008.841553 1272.927246 1016.099976 1269.495239 1020.5 C 1266.06311 1024.900024 1260.324219 1033 1256.741943 1038.5 C 1253.15979 1044 1247.277832 1053.675049 1243.670898 1060 C 1240.063965 1066.324951 1229.196045 1087.699951 1219.519897 1107.5 C 1209.84375 1127.300049 1198.929688 1149.003662 1195.266357 1155.730469 C 1191.603027 1162.457031 1186.37915 1170.933838 1183.657837 1174.567627 C 1180.936523 1178.201416 1175.512695 1184.443359 1171.60498 1188.438232 C 1167.697266 1192.43335 1162.556274 1197.092773 1160.180664 1198.79248 C 1157.805054 1200.492432 1152.85498 1202.893311 1149.180664 1204.12793 C 1145.007324 1205.530273 1140.040649 1206.380127 1135.947144 1206.392334 C 1131.553345 1206.405273 1127.270142 1205.643799 1122.947144 1204.080811 C 1119.401245 1202.798584 1114.404663 1200.223633 1111.84375 1198.358521 C 1109.282837 1196.493408 1105.785156 1192.781982 1104.071167 1190.11084 C 1102.357178 1187.439819 1099.970093 1182.384766 1098.766724 1178.877197 C 1097.242065 1174.433594 1096.595581 1170.22583 1096.634521 1165 C 1096.667847 1160.518188 1097.541626 1154.529053 1098.805664 1150.117432 C 1099.969116 1146.056885 1102.803467 1138.987305 1105.10437 1134.407227 C 1107.405273 1129.827026 1112.270874 1122.124268 1115.916748 1117.289795 C 1119.562744 1112.455444 1125.76709 1104.438477 1129.704224 1099.474487 C 1133.641479 1094.510498 1138.043335 1088.173462 1139.486328 1085.392334 C 1140.929321 1082.611084 1142.359741 1077.897461 1142.665039 1074.917725 C 1142.970337 1071.937988 1142.719482 1067.647705 1142.107666 1065.383789 C 1141.495728 1063.119995 1139.758667 1060.025269 1138.247559 1058.506836 C 1136.736328 1056.988281 1133.975952 1055.015381 1132.113159 1054.122803 C 1130.250488 1053.230225 1126.875488 1052.542969 1124.613159 1052.595337 C 1122.350952 1052.647827 1118.492065 1053.71814 1116.037842 1054.973877 C 1113.58374 1056.229614 1109.271118 1059.617676 1106.454224 1062.50293 C 1103.221069 1065.814453 1099.839111 1070.836914 1097.281738 1076.124268 C 1095.053589 1080.730957 1090.97168 1091.025024 1088.210693 1099 C 1085.449707 1106.974976 1081.062622 1119.800049 1078.461548 1127.5 C 1075.860352 1135.199951 1071.550537 1147.284668 1068.883911 1154.354736 C 1066.217285 1161.424805 1061.609131 1171.855713 1058.643433 1177.534424 C 1055.677734 1183.213257 1050.382324 1192.645752 1046.87561 1198.495605 C 1043.369019 1204.345581 1037.660645 1212.922852 1034.19043 1217.556396 C 1030.720093 1222.189941 1023.100769 1230.96936 1017.258606 1237.066162 C 1011.416504 1243.162842 1002.148865 1251.760864 996.66394 1256.172852 C 991.179016 1260.584717 982.373291 1267.057129 977.095642 1270.55603 C 971.818054 1274.054932 962.595093 1279.523682 956.600159 1282.70874 C 946.273499 1288.195557 945.687683 1288.675659 945.45929 1291.841187 C 945.246948 1294.783936 945.71875 1295.499512 949.416016 1297.841187 C 951.724792 1299.303467 958.98822 1303.049561 965.556885 1306.165771 C 972.12561 1309.281982 984.25 1314.14624 992.5 1316.975342 C 1000.75 1319.804321 1012.719482 1323.443848 1019.098877 1325.063232 C 1025.478271 1326.682617 1035.378296 1328.720215 1041.098877 1329.591309 C 1046.819458 1330.462402 1055.550049 1331.516602 1060.5 1331.93396 C 1065.449951 1332.351318 1074.900024 1332.513672 1081.5 1332.294678 Z"/>
    <path id="path2" fill="#ffffff" fill-rule="evenodd" stroke="none" d="M 857.561218 1208.658936 C 853.297119 1208.939209 849.920471 1208.493652 846.172729 1207.15625 C 843.189209 1206.091431 839.081177 1203.549072 836.835083 1201.377441 C 834.629395 1199.244873 831.474487 1194.84668 829.824219 1191.603882 C 827.612 1187.256836 826.695557 1183.841309 826.336121 1178.603882 C 825.976501 1173.36377 826.394714 1169.401123 827.930115 1163.5 C 829.075012 1159.099976 831.345947 1152.771484 832.976685 1149.436523 C 834.903625 1145.49585 838.157349 1141.294678 842.270142 1137.436523 C 845.750793 1134.171387 850.810913 1129.925049 853.514832 1128 C 856.21875 1126.074951 859.384644 1123.081299 860.550232 1121.347412 C 861.715759 1119.613525 865.952271 1111.063477 869.964661 1102.347412 C 873.977112 1093.631348 881.094238 1077.949951 885.780457 1067.5 C 890.466736 1057.050049 894.50769 1046.667725 894.760437 1044.428223 C 895.136841 1041.093018 894.18219 1037.92749 889.482788 1026.928223 C 886.327332 1019.542725 882.847473 1010.800049 881.749695 1007.5 C 880.651917 1004.199951 878.951172 1000.654541 877.970276 999.621216 C 876.595398 998.172852 875.391479 997.891602 872.71521 998.393677 C 870.805786 998.751831 868.164368 1000.047363 866.845337 1001.272461 C 865.526306 1002.497559 862.944214 1007.324951 861.1073 1012 C 859.270447 1016.675049 856.408081 1022.660522 854.746582 1025.30127 C 852.167786 1029.399902 851.897888 1030.424316 852.902466 1032.30127 C 853.549683 1033.510498 854.729736 1035.625 855.524841 1037 C 856.319946 1038.375 856.975464 1041.300049 856.981506 1043.5 C 856.987732 1045.748535 856.122681 1048.926758 855.00592 1050.758301 C 853.870544 1052.620483 851.040649 1054.977173 848.401672 1056.258301 C 844.427185 1058.187744 842.162476 1058.5 832.142029 1058.5 C 823.160706 1058.5 819.132813 1058.042969 814.517883 1056.5 C 809.988586 1054.985718 807.984985 1053.674805 806.267883 1051.102051 C 804.951355 1049.129639 804 1046.181641 804 1044.074707 C 804 1042.078369 804.674683 1039.481812 805.499268 1038.304443 C 806.323853 1037.127197 808.573853 1035.19043 810.499268 1034.000488 C 813.115662 1032.383423 814 1031.147949 814 1029.109619 C 814 1027.609619 813.351379 1025.508789 812.558594 1024.441162 C 811.497742 1023.012573 810.727539 1022.764038 809.641541 1023.5 C 808.830017 1024.050049 805.99115 1026.462158 803.333008 1028.860596 C 800.674866 1031.258789 797.375 1033.660889 796 1034.198242 C 794.625 1034.73584 791.474976 1034.979492 789 1034.739746 C 785.789307 1034.428711 779.065918 1031.461182 765.534119 1024.382813 C 749.2771 1015.878784 746.145691 1013.860596 743.610046 1010.252808 C 741.811951 1007.694458 740.645264 1004.760742 740.635071 1002.771851 C 740.625793 1000.972412 741.257507 997.324829 742.038879 994.666382 C 743.386169 990.082397 743.342163 989.643555 741.186279 986.166382 C 739.935974 984.149902 737.575134 979.68103 735.940063 976.235718 C 734.304993 972.790405 732.256592 967.390381 731.388123 964.235718 C 730.519714 961.081055 729.564392 953.804321 729.265259 948.065308 C 728.854431 940.182739 729.138245 935.862427 730.425659 930.401489 C 731.362976 926.425537 733.615112 920.096191 735.43042 916.336304 C 737.245728 912.576294 740.928955 906.694092 743.615479 903.264648 C 746.301941 899.835205 750.973938 895.172974 753.997559 892.904053 C 757.02124 890.635132 761.971252 887.530273 764.997559 886.00415 C 768.023926 884.478149 773.44104 882.322388 777.035645 881.213501 C 780.63031 880.104736 786.030273 878.901978 789.035645 878.540771 C 792.041077 878.179565 797.738708 878.355103 801.697144 878.930908 C 805.655579 879.506714 809.615173 879.701172 810.496277 879.363037 C 811.37738 879.024902 813.485962 875.992432 815.182068 872.624146 C 816.878174 869.255859 819.620483 864.474976 821.276062 862 C 822.931702 859.525024 825.796875 855.906006 827.643127 853.957886 C 829.909363 851.566528 830.996155 849.454712 830.988159 847.457886 C 830.981628 845.831055 830.312561 842.025024 829.501343 839 C 828.690186 835.974976 827.739502 830.117065 827.388855 825.9823 C 826.875549 819.931152 827.176514 816.914429 828.931519 810.517456 C 830.130676 806.146484 832.46051 800.079468 834.109009 797.035156 C 835.757446 793.990845 838.769836 789.648682 840.803101 787.385864 C 842.836426 785.123047 849.910156 779.273071 856.522583 774.385864 C 863.13501 769.498657 879.176147 758.343506 892.169556 749.596802 C 905.162903 740.850098 924.619019 727.693237 935.405396 720.359375 C 946.191711 713.025513 964.800598 700.480225 976.758484 692.480957 C 988.716309 684.481567 999.878723 677.050293 1001.563904 675.967041 C 1003.249023 674.883667 1007.523987 672.831543 1011.063904 671.406738 C 1014.603943 669.981812 1020.498169 668.574829 1024.162964 668.279907 C 1028.520874 667.929199 1033.308838 668.304443 1038.002563 669.36438 C 1041.949585 670.255737 1048.38562 672.670044 1052.30481 674.729492 C 1056.223877 676.78894 1061.696045 680.749146 1064.46521 683.529907 C 1067.234375 686.310669 1071.347656 691.352783 1073.605835 694.734497 C 1075.864014 698.116211 1078.78894 704.171875 1080.105835 708.191528 C 1082.111328 714.313354 1082.481567 717.367188 1082.386475 727 C 1082.292725 736.493896 1081.828613 739.80835 1079.725952 746 C 1077.924438 751.304932 1077.481323 753.865845 1078.211914 754.75 C 1078.851929 755.524536 1081.812134 756 1085.99353 756 C 1092.742065 756 1092.742065 756 1100.621094 749.808594 C 1104.954468 746.40332 1112.775024 740.190674 1118 736.002808 C 1123.224976 731.814819 1131.085571 725.713379 1135.468018 722.444092 C 1139.850464 719.174805 1145.201782 714.821411 1147.359985 712.769775 C 1151.18457 709.134033 1151.268799 708.90625 1150.685303 703.769775 C 1150.356079 700.87146 1149.392212 694.039185 1148.543335 688.587158 C 1147.69458 683.13501 1147 675.707275 1147 672.081055 C 1147 668.454712 1147.678101 659.690308 1148.506958 652.604736 C 1149.335815 645.519043 1151.121216 633.596802 1152.474487 626.11084 C 1153.827759 618.624878 1155.234375 608.208008 1155.60022 602.96228 C 1156.127319 595.404297 1155.908081 592.195679 1154.544189 587.503906 C 1153.597534 584.247559 1151.098022 578.414551 1148.989746 574.541626 C 1146.88147 570.668701 1144.172607 564.221436 1142.970093 560.214478 C 1141.404053 554.996338 1140.968018 551.698853 1141.433594 548.594238 C 1141.791138 546.210327 1143.345703 542.269531 1144.888428 539.837036 C 1146.43103 537.404541 1154.259644 529.435181 1162.2854 522.127197 C 1170.311157 514.819214 1180.929565 504.263428 1185.881836 498.669922 C 1190.834106 493.076538 1198.045776 484.319214 1201.907593 479.209351 C 1205.769409 474.099487 1211.389038 465.941895 1214.39563 461.081421 C 1217.402222 456.220947 1222.583008 446.816528 1225.908325 440.182861 C 1229.233765 433.549194 1234.631714 421.681763 1237.903931 413.810791 C 1241.176147 405.939819 1245.997192 393.199951 1248.617554 385.5 C 1251.907715 375.831055 1254.226807 370.649292 1256.113892 368.75 C 1258.170166 366.680298 1259.817993 366 1262.77478 366 C 1265.751221 366 1268.369629 367.09436 1273.578003 370.515259 C 1277.359009 372.998535 1283.571045 376.036011 1287.38269 377.265259 C 1292.974854 379.068481 1296.55127 379.491089 1305.906494 379.453613 C 1312.282837 379.428101 1322.321899 379.203003 1328.21521 378.953613 C 1338.85376 378.503296 1338.950317 378.519897 1341.71521 381.272705 C 1343.88916 383.437378 1344.498291 384.972656 1344.492188 388.272705 C 1344.487183 390.980835 1342.700684 396.992188 1339.52124 405 C 1336.791504 411.875 1331.315552 424.025024 1327.352539 432 C 1323.389404 439.974976 1316.851318 451.522583 1312.823486 457.661255 C 1308.795532 463.799927 1300.025757 475.499878 1293.334839 483.661255 C 1286.644043 491.82251 1274.096558 505.699951 1265.451538 514.5 C 1256.806641 523.300049 1246.622559 533.875 1242.820435 538 C 1239.018311 542.125 1233.668213 548.873413 1230.931396 552.99646 C 1228.19458 557.119507 1224.573486 564.075928 1222.884766 568.455078 C 1220.921753 573.545166 1219.641968 578.957153 1219.336792 583.458618 C 1219.044556 587.770264 1219.655151 596.121216 1220.911865 605 C 1222.040771 612.974976 1223.900635 626.699951 1225.045044 635.5 C 1226.189331 644.300049 1227.984497 656.640503 1229.03418 662.92334 C 1230.083984 669.206177 1231.518188 674.71875 1232.221436 675.173462 C 1233.077515 675.727173 1234.824219 674.596069 1237.507813 671.750122 C 1239.712036 669.412598 1244.465942 663.900024 1248.071899 659.5 C 1251.677979 655.099976 1256.915405 648.349976 1259.710693 644.5 C 1262.505981 640.650024 1266.39978 634.349976 1268.363525 630.5 C 1271.55542 624.24231 1272.102173 621.974121 1273.519531 609.112061 C 1274.391479 601.19873 1275.711426 592.963623 1276.452759 590.81189 C 1277.194092 588.660156 1278.940796 585.176758 1280.334351 583.070923 C 1281.817505 580.829834 1284.705933 578.352539 1287.300537 577.096558 C 1289.738525 575.916382 1295.055664 574.27063 1299.116577 573.439331 C 1303.17749 572.60791 1309.650024 571.521118 1313.5 571.024048 C 1317.349976 570.526978 1327.474976 568.350952 1336 566.188477 C 1344.525024 564.026001 1355.995483 560.564697 1361.490112 558.496582 C 1366.984619 556.428589 1376.092407 552.577393 1381.729614 549.938354 C 1387.366821 547.299438 1396.821289 542.222412 1402.739502 538.65625 C 1408.657837 535.089966 1417.710571 529.19165 1422.856812 525.548706 C 1428.003052 521.905762 1436.778076 515.246338 1442.356812 510.75 C 1447.935547 506.253662 1455.096558 500.118286 1458.270142 497.115967 C 1461.443726 494.113647 1465.675049 490.546265 1467.673218 489.188477 C 1469.671387 487.830688 1473.197876 486.506592 1475.509888 486.245972 C 1479.101563 485.841187 1480.16687 486.189087 1482.828125 488.636108 C 1484.751099 490.404297 1486.854858 494.061035 1488.327026 498.194336 C 1489.810791 502.360229 1492.644165 507.270142 1495.828735 511.194336 C 1498.973145 515.068848 1503.366333 518.977539 1507.223145 521.332397 C 1510.675415 523.440186 1517.550049 527.409668 1522.5 530.153442 C 1527.449951 532.897339 1532.473633 536.306396 1533.663696 537.729248 C 1534.853638 539.1521 1536.050293 541.482422 1536.322754 542.907837 C 1536.595215 544.333252 1536.230957 546.904785 1535.513306 548.622437 C 1534.793701 550.344727 1531.134399 554.19519 1527.354248 557.207642 C 1523.584351 560.211914 1517.125 564.933716 1513 567.700684 C 1508.875 570.467529 1501.324585 575.27771 1496.221313 578.390015 C 1491.118042 581.502197 1481.668091 586.685425 1475.221313 589.908203 C 1468.774658 593.130981 1459.224976 597.358765 1454 599.303101 C 1448.775024 601.247437 1439.099976 604.451416 1432.5 606.422974 C 1425.900024 608.394531 1415.099976 611.536377 1408.5 613.404785 C 1401.900024 615.273193 1390.520264 618.411621 1383.211792 620.379028 C 1375.903198 622.346558 1366.228149 625.573486 1361.711792 627.549927 C 1357.195313 629.526489 1350.29126 633.134766 1346.369385 635.568481 C 1342.447632 638.002075 1337.623291 641.781372 1335.648804 643.967041 C 1333.674194 646.152588 1330.648071 650.735107 1328.924072 654.150391 C 1327.200073 657.565674 1323.869385 665.341553 1321.522705 671.430054 C 1319.176025 677.518555 1313.089844 692.849976 1307.997803 705.5 C 1302.905884 718.150024 1294.73645 739.074951 1289.84375 752 C 1284.95105 764.925049 1278.379639 781.349976 1275.240601 788.5 C 1272.083984 795.690308 1267.514893 804.147583 1265.016724 807.424316 C 1262.532471 810.682739 1258.925049 814.571533 1257 816.06604 C 1255.074951 817.560669 1246.75 822.377808 1238.5 826.770752 C 1230.25 831.163696 1214.724976 838.933594 1204 844.036987 C 1193.275024 849.140503 1177.974976 855.987793 1170 859.253418 C 1162.025024 862.518921 1149.262695 867.40625 1141.639282 870.114014 C 1134.015869 872.821899 1122.09082 876.630615 1115.139282 878.577881 C 1108.187622 880.525146 1096.677979 883.932373 1089.562134 886.149536 C 1080.880737 888.85437 1074.794434 891.424194 1071.062134 893.960571 C 1068.00293 896.039551 1053.125 910.205688 1038 925.440918 C 1022.691833 940.860596 1006.509949 956.177124 1001.5 959.989136 C 996.549988 963.755493 987.139099 969.686157 980.586853 973.168457 C 974.034607 976.650879 968.20343 980.261353 967.628662 981.191895 C 966.862305 982.432495 967.332214 986.566162 969.390625 996.691895 C 970.934509 1004.286377 973.768066 1017.474976 975.6875 1026 C 978.550293 1038.714844 979.089111 1042.847656 978.68634 1049 C 978.41626 1053.125 977.363831 1058.525024 976.347656 1061 C 975.331421 1063.474976 972.803406 1068.650024 970.729797 1072.5 C 968.656128 1076.349976 961.724365 1086.925049 955.325867 1096 C 948.927307 1105.074951 941.686523 1115.425049 939.235229 1119 C 936.783875 1122.574951 928.877014 1133.375 921.664429 1143 C 914.451782 1152.625 903.472839 1167.025024 897.266785 1175 C 891.06073 1182.974976 882.951294 1192.83667 879.245911 1196.914795 C 874.949646 1201.643311 870.898987 1205.04187 868.065613 1206.295166 C 865.621826 1207.376221 860.894897 1208.439941 857.561218 1208.658936 Z M 855.952515 1186 C 857.384705 1186 859.961975 1184.987549 861.679932 1183.75 C 863.397827 1182.512451 866.113464 1179.925049 867.714722 1178 C 869.315979 1176.074951 872.673645 1171.800049 875.176208 1168.5 C 877.678772 1165.199951 880.928284 1160.727051 882.397278 1158.560059 C 883.867065 1156.39209 884.806458 1153.918701 884.486084 1153.060059 C 884.165894 1152.202148 882.646057 1150.229126 881.108582 1148.675781 C 879.329529 1146.878418 876.892944 1145.665649 874.406616 1145.339966 C 871.703918 1144.985962 868.959106 1145.490967 865.5 1146.978394 C 862.75 1148.161011 859.221313 1150.337158 857.658447 1151.814209 C 856.09552 1153.291504 853.994873 1156.097412 852.990234 1158.049805 C 851.985596 1160.002197 850.4375 1165.11499 849.549988 1169.411865 C 848.662476 1173.708496 848.227356 1178.186035 848.583069 1179.362061 C 848.938843 1180.537842 850.156616 1182.512451 851.289246 1183.75 C 852.421936 1184.987549 854.520386 1186 855.952515 1186 Z M 897.849976 1131.955322 C 900.341614 1131.988525 902.019653 1131.167236 904.398987 1128.75 C 906.158447 1126.962524 912.036316 1119.199951 917.460938 1111.5 C 922.88562 1103.800049 929.862976 1093.900024 932.966248 1089.5 C 936.069519 1085.099976 942.292419 1075.784668 946.794922 1068.799438 C 951.297363 1061.814087 955.520325 1054.083374 956.179138 1051.619995 C 957.084473 1048.235229 957.105896 1045.475098 956.266846 1040.320557 C 955.65625 1036.569336 954.006836 1027.875 952.601563 1021 C 951.196289 1014.125 949.149902 1005.349976 948.054138 1001.5 C 946.958313 997.650024 945.150391 989.064575 944.036438 982.421265 C 942.922485 975.778076 940.854004 965.66626 939.439819 959.950562 C 938.025635 954.234985 936.84436 947.807861 936.81488 945.667969 C 936.773315 942.660034 937.423401 941.115112 939.680176 938.858276 C 941.32196 937.216431 944.133057 935.69043 946.104919 935.370361 C 948.945007 934.909546 950.216675 935.311401 952.802551 937.487305 C 955.018433 939.351807 956.489624 941.904907 957.613831 945.836548 C 958.504456 948.951416 959.925476 952.287476 960.771606 953.25 C 961.617676 954.212524 963.252747 954.995117 964.404968 954.989136 C 965.557251 954.983276 968.550781 954.355835 971.057251 953.594971 C 973.563721 952.834229 979.739197 949.126587 984.780518 945.355835 C 989.821838 941.585083 1005.096069 927.474976 1018.723267 914 C 1036.377441 896.542969 1043.585938 888.765503 1043.798828 886.945068 C 1044.008545 885.151611 1042.653809 882.46936 1039.25293 877.945068 C 1036.588379 874.400269 1031.053955 867.07605 1026.954224 861.669067 C 1022.85437 856.261963 1017.73291 849.286987 1015.57312 846.169067 C 1013.41333 843.051025 1009.878235 838.474976 1007.717346 836 C 1005.556458 833.525024 1002.91333 829.644653 1001.84375 827.376831 C 1000.77417 825.109131 998.781372 822.203857 997.415405 820.920532 C 995.249634 818.885864 994.55603 818.729126 991.995972 819.695435 C 990.381287 820.304932 979.259155 827.686157 967.28009 836.098145 C 955.301025 844.510132 936.950012 857.254028 926.5 864.417847 C 915.702942 871.81958 904.690002 880.261597 900.991394 883.971436 C 897.411621 887.562134 892.256165 893.850342 889.534729 897.945313 C 886.2948 902.820435 883.777222 908.171021 882.241638 913.445313 C 880.447144 919.608887 879.87915 924.082642 879.822388 932.5 C 879.754578 942.559692 880.044128 944.354858 883.2099 953.5 C 885.113831 959 890.875366 973.400024 896.013245 985.5 C 901.151184 997.599976 907.539551 1012.900024 910.209534 1019.5 C 912.879578 1026.099976 915.98822 1034.52002 917.117676 1038.211182 C 919.171265 1044.922607 919.171265 1044.922607 915.514465 1053.211182 C 913.503174 1057.77002 909.920044 1066 907.551941 1071.5 C 905.183838 1077 900.18335 1088.025024 896.439819 1096 C 892.696289 1103.974976 888.56604 1113.104736 887.261475 1116.28833 C 885.926453 1119.546143 885.160278 1122.929688 885.50885 1124.027954 C 885.849487 1125.101074 888.011841 1127.313843 890.314087 1128.945068 C 892.876404 1130.760498 895.799377 1131.928101 897.849976 1131.955322 Z M 787.533264 1011 C 788.2547 1011 790.943542 1008.637451 793.508484 1005.75 C 796.073425 1002.862549 798.863892 999.095825 799.709412 997.379639 C 801.101929 994.553345 801.091309 993.790894 799.59668 989.291138 C 798.689087 986.558594 796.579041 983.012817 794.907593 981.411499 C 792.183228 978.801392 791.190247 978.5 785.313538 978.5 C 778.758362 978.5 778.758362 978.5 771.873047 985.850342 C 768.086121 989.893066 764.707153 994.318604 764.364197 995.684937 C 763.978027 997.223633 764.265869 998.662109 765.120361 999.464111 C 765.87915 1000.176147 770.937378 1003.06311 776.36084 1005.879395 C 781.784302 1008.695801 786.81189 1011 787.533264 1011 Z M 833.363647 1010 C 834.663635 1010 836.809753 1008.91748 838.132751 1007.594482 C 839.455811 1006.271484 842.104675 1001.458374 844.019165 996.898682 C 845.933594 992.338989 848.400024 987.28064 849.5 985.657959 C 850.599976 984.0354 853.97052 981.536011 856.990051 980.103882 C 860.197021 978.582886 863.096497 976.380737 863.962341 974.808716 C 865.209839 972.543457 865.244385 971.435059 864.180725 967.808716 C 863.485657 965.438965 861.448853 957.750732 859.654541 950.723877 C 857.584106 942.615601 855.681091 937.280151 854.446045 936.12085 C 853.375732 935.116089 850.331421 933.117188 847.680969 931.678833 C 845.030518 930.240479 839.584595 925.622925 835.578857 921.41748 C 828.987061 914.49707 828.091919 913.880493 826.147888 914.920898 C 824.966553 915.553101 823.288452 917.156372 822.418701 918.483643 C 821.549011 919.811035 820.012146 924.182739 819.003479 928.198486 C 817.994751 932.214355 815.543823 940 813.557007 945.5 C 811.570129 951 809.680725 957.340332 809.358337 959.589478 C 808.855835 963.094971 809.352905 964.737305 812.838806 971.089478 C 815.0755 975.165283 818.027954 982.694824 819.399841 987.821899 C 820.77179 992.948975 823.088867 999.182251 824.54895 1001.673706 C 826.009033 1004.165161 828.057861 1007.057861 829.101807 1008.101807 C 830.145813 1009.145874 832.06366 1010 833.363647 1010 Z M 758.870422 967.51355 C 759.766663 967.179077 761.174988 966.073242 762 965.05603 C 762.825012 964.038818 765.299988 962.320313 767.5 961.237183 C 769.700012 960.154053 773.974976 958.710449 777 958.029053 C 780.025024 957.347778 783.913574 956.193115 785.641296 955.463135 C 787.9328 954.495117 789.212646 952.967896 790.372009 949.817993 C 791.246155 947.443115 793.379517 940.550049 795.112793 934.5 C 796.846069 928.449951 798.951416 922.710327 799.791321 921.745239 C 800.631287 920.780151 801.698792 917.855225 802.163635 915.245239 C 802.628418 912.635376 803.289551 908.823364 803.632813 906.774048 C 804.199097 903.392944 804.007568 902.953369 801.563354 902.024048 C 800.081909 901.460815 796.311584 901.005371 793.184875 901.011841 C 790.058228 901.018433 785.131226 901.654297 782.236023 902.425049 C 779.34082 903.195801 774.959229 905.005859 772.499207 906.447632 C 770.039185 907.889282 765.708069 911.387207 762.874573 914.220703 C 760.041077 917.054077 756.920593 921.201172 755.940186 923.436279 C 754.959717 925.671265 753.447083 930.265015 752.578796 933.644287 C 751.710449 937.023682 751 942.739136 751 946.345093 C 751 949.951172 751.483398 955.155396 752.074158 957.910156 C 752.664978 960.664917 754.069153 964.089478 755.19458 965.520264 C 756.512512 967.195679 757.820801 967.905151 758.870422 967.51355 Z M 857.426453 910.716064 C 858.806519 910.561279 860.142029 908.514404 862.134766 903.5 C 863.664734 899.650024 866.5495 893.439087 868.545288 889.697998 C 870.541138 885.956909 871.954529 882.323975 871.686279 881.624756 C 871.417969 880.925537 868.566284 879.353638 865.349182 878.131592 C 862.132141 876.909546 857.025024 874.273071 854 872.272705 C 850.974976 870.272339 847.572571 868.456421 846.439026 868.237427 C 844.995667 867.958496 843.23877 869.10022 840.576355 872.047119 C 838.485413 874.361572 835.896423 878.240601 834.822998 880.667236 C 833.749573 883.093994 833.012756 885.865112 833.185669 886.825562 C 833.358521 887.785889 838.450012 893.602783 844.5 899.751831 C 851.840637 907.212769 856.140869 910.860229 857.426453 910.716064 Z M 1069 868.674194 C 1072.025024 868.425415 1076.074951 867.491089 1078 866.5979 C 1079.925049 865.704712 1087.574951 863.423218 1095 861.527954 C 1102.425049 859.63269 1112.099976 856.983643 1116.5 855.641113 C 1120.900024 854.298584 1128.324951 851.858154 1133 850.217896 C 1137.675049 848.577637 1146.900024 845.092041 1153.5 842.472046 C 1160.099976 839.852051 1167.974976 836.634644 1171 835.322144 C 1174.025024 834.009766 1181.449951 830.651367 1187.5 827.859131 C 1193.550049 825.066895 1202.775024 820.678711 1208 818.107666 C 1213.224976 815.536499 1222.900024 810.522949 1229.5 806.966431 C 1236.883789 802.987549 1243.349121 798.669189 1246.306885 795.740723 C 1249.057007 793.017822 1252.340332 788.311279 1253.980591 784.740723 C 1255.557373 781.30835 1258.198242 774.675049 1259.849121 770 C 1261.500122 765.324951 1264.022949 758.574951 1265.455444 755 C 1266.887939 751.425049 1268.675171 747.150024 1269.42688 745.5 C 1270.178711 743.849976 1272.164551 738.449951 1273.839844 733.5 C 1275.515259 728.550049 1279.418335 718.650024 1282.513306 711.5 C 1285.608398 704.349976 1291.121948 691.074951 1294.765747 682 C 1300.03479 668.877197 1301.401978 664.374268 1301.445435 660 C 1301.481079 656.407593 1300.806396 653.112671 1299.5 650.5 C 1298.188965 647.877808 1296.195923 645.862915 1293.714233 644.650513 C 1291.620605 643.627808 1288.938843 643.052612 1287.714233 643.363892 C 1286.49646 643.67334 1284.321411 645.855591 1282.880981 648.213257 C 1281.44043 650.571045 1277.897949 655.631714 1275.008667 659.459351 C 1272.119263 663.286987 1266.340698 670.712036 1262.167114 675.959351 C 1257.993652 681.206665 1251.922363 688.650024 1248.675537 692.5 C 1245.428711 696.349976 1240.178833 703.337891 1237.009155 708.028687 C 1233.839355 712.719604 1230.312988 718.794556 1229.172729 721.528687 C 1228.032471 724.262939 1225.969604 730.324951 1224.588501 735 C 1223.207397 739.675049 1221.134644 746.783813 1219.9823 750.797363 C 1218.743774 755.111084 1216.785767 759.296875 1215.193481 761.034546 C 1212.716553 763.738037 1211.294189 764.17688 1197.5 766.494263 C 1189.25 767.880249 1169.224976 771.073608 1153 773.590698 C 1136.775024 776.107666 1119.549805 778.773193 1114.721802 779.513916 C 1106.809204 780.728027 1104.738403 780.671753 1093.721802 778.943359 C 1086.999756 777.888794 1076.910767 777.020142 1071.301636 777.012939 C 1063.186523 777.002686 1059.49353 777.508545 1053.223267 779.489258 C 1048.88916 780.858398 1042.678467 783.711304 1039.421631 785.828979 C 1036.164673 787.946655 1029.900024 792.248901 1025.5 795.389648 C 1021.099976 798.530396 1016.862549 802.007813 1016.083374 803.11731 C 1014.8349 804.89502 1014.91394 805.630859 1016.749329 809.317261 C 1017.894775 811.617798 1020.734497 815.974976 1023.059875 819 C 1025.385254 822.025024 1028.876831 826.974976 1030.81897 830 C 1032.761108 833.025024 1036.660767 838.425049 1039.484863 842 C 1042.309082 845.574951 1046.120605 850.75 1047.954834 853.5 C 1049.789185 856.25 1052.687256 860.017578 1054.39502 861.872437 C 1056.102783 863.727173 1058.849976 866.118164 1060.5 867.185547 C 1062.839478 868.699097 1064.710815 869.026855 1069 868.674194 Z M 886.107544 858.710815 C 894.363098 858.410522 894.997681 858.215698 901.626282 853.948853 C 905.427368 851.501953 912.498596 846.863281 917.340027 843.640503 C 922.181458 840.417725 926.647278 836.673584 927.263977 835.319946 C 928.076965 833.535645 928.087402 832.069824 927.301941 829.988892 C 926.706055 828.410278 922.057678 821.129517 916.972168 813.809448 C 911.886658 806.489258 904.638367 795.903809 900.864868 790.286255 C 897.091309 784.668579 893.145325 779.612915 892.096008 779.051392 C 890.545227 778.221436 888.90741 778.900269 883.344116 782.678955 C 879.579834 785.235718 873.577332 789.391357 870.005249 791.913818 C 866.433105 794.436157 861.548462 798.469604 859.150391 800.876953 C 856.75238 803.284302 853.716919 807.559326 852.404968 810.376953 C 850.44281 814.590942 850.021729 817.096924 850.031738 824.5 C 850.040833 831.239136 850.529236 834.569214 851.975891 837.756348 C 853.038513 840.09729 855.131287 843.616699 856.626587 845.577148 C 858.121887 847.537476 861.363525 850.530029 863.830261 852.227173 C 866.296936 853.924316 870.381775 856.147949 872.907593 857.168457 C 876.438293 858.594971 879.48999 858.951538 886.107544 858.710815 Z M 951.751526 817.82312 C 953.299011 817.596069 958.673706 814.505371 963.695374 810.955078 C 968.717041 807.404785 979.727417 799.730835 988.162842 793.901978 C 996.598267 788.07312 1013.174988 776.908569 1025 769.091919 C 1036.851074 761.257935 1048.478027 752.775024 1050.907349 750.189941 C 1053.331421 747.610474 1056.481445 743.025024 1057.907349 740 C 1060.102905 735.342529 1060.498047 733.121338 1060.487183 725.5 C 1060.476807 718.229126 1060.046875 715.635498 1058.249268 712 C 1057.025513 709.525024 1054.321777 705.25 1052.240967 702.5 C 1049.678955 699.114014 1046.453491 696.436401 1042.248657 694.2052 C 1038.833618 692.393066 1033.855835 690.651855 1031.186768 690.335693 C 1028.059204 689.965332 1024.334961 690.342163 1020.710693 691.395752 C 1017.349487 692.372803 1011.147705 695.713745 1005.293701 699.700806 C 999.907166 703.369385 991.224976 709.304443 986 712.889648 C 980.775024 716.474976 971.549988 722.775146 965.5 726.890137 C 959.450012 731.005249 949.775024 737.572876 944 741.484985 C 938.224976 745.397217 928.662476 751.897827 922.75 755.930786 C 915.637207 760.782593 912 763.885986 912 765.103027 C 912 766.114624 914.874329 771.152344 918.387451 776.297729 C 921.900513 781.443237 928.862122 791.46875 933.857666 798.576538 C 938.853149 805.684448 944.289856 813.015625 945.939209 814.868042 C 948.301697 817.521484 949.534973 818.148438 951.751526 817.82312 Z M 1142.25 752.567383 C 1145.6875 752.1875 1151.425049 751.244141 1155 750.471313 C 1158.574951 749.698364 1166.449951 748.348511 1172.5 747.471436 C 1178.550049 746.59436 1186.191528 745.37085 1189.481201 744.752686 C 1193.102295 744.072144 1196.311035 742.779907 1197.613281 741.477661 C 1198.796265 740.294678 1200.251465 737.054688 1200.847046 734.27771 C 1201.442627 731.500732 1203.257446 725.914673 1204.880005 721.86438 C 1206.502563 717.813965 1209.012451 711.942871 1210.45752 708.817383 C 1213.084961 703.134766 1213.084961 703.134766 1211.596313 694.05835 C 1210.777466 689.066284 1209.615479 681.723511 1209.013916 677.740967 C 1208.412354 673.758423 1207.04248 664.650024 1205.969849 657.5 C 1204.897095 650.349976 1203.126831 636.625 1202.035767 627 C 1200.944824 617.375 1199.601563 606.800049 1199.050781 603.5 C 1198.373901 599.444458 1197.359375 596.934448 1195.920044 595.754883 C 1194.305542 594.431763 1192.788208 594.161499 1189.645264 594.636963 C 1187.365356 594.981812 1184.068604 595.843628 1182.319092 596.552124 C 1179.91394 597.526001 1178.878784 598.774414 1178.074585 601.670166 C 1177.489746 603.776611 1177.008667 607.206421 1177.005615 609.292114 C 1177.002563 611.377808 1176.373779 616.327881 1175.608521 620.292114 C 1174.84314 624.25647 1173.743896 630.650024 1173.165527 634.5 C 1172.587158 638.349976 1171.525879 645.324951 1170.807007 650 C 1170.088135 654.675049 1169.5 664.125 1169.5 671 C 1169.5 680.621338 1170.161865 686.954468 1172.374146 698.5 C 1175.045532 712.44165 1175.141968 713.75354 1173.740479 717.09375 C 1172.655396 719.680054 1169.046143 723.168457 1160.866333 729.537231 C 1154.614868 734.404541 1146.462524 741.046265 1142.75 744.296509 C 1139.037476 747.546631 1136 750.8927 1136 751.732178 C 1136 753.011353 1137.011719 753.146484 1142.25 752.567383 Z M 1315.279419 629.95813 C 1317.025757 629.984375 1319.82251 628.606201 1322.803955 626.25 C 1325.413818 624.1875 1330.817993 620.525391 1334.813354 618.111816 C 1338.808594 615.698364 1342.535034 612.868896 1343.094116 611.824097 C 1343.65332 610.779297 1343.831909 609.045532 1343.490967 607.971436 C 1343.067261 606.636719 1341.071167 605.511963 1337.185547 604.418579 C 1334.058472 603.538696 1328.800049 602.022461 1325.5 601.049194 C 1322.199951 600.07605 1316.233765 598.492432 1312.241699 597.530151 C 1308.004028 596.508545 1303.587524 596.042358 1301.629028 596.40979 C 1299.784058 596.755981 1297.444946 597.955811 1296.43103 599.076172 C 1294.995483 600.662476 1294.497192 603.178223 1294.179443 610.442383 C 1293.812134 618.8396 1293.977295 619.977295 1295.833008 621.833008 C 1296.966797 622.966797 1299.605713 624.380859 1301.697266 624.97522 C 1303.788818 625.56958 1307.074951 626.924561 1309 627.986084 C 1310.925049 629.047607 1313.750732 629.935059 1315.279419 629.95813 Z M 1388 588.600464 C 1411.886353 588.270508 1416.676025 587.937134 1424.449341 586.063354 C 1429.371582 584.876831 1438.985107 581.880981 1445.812744 579.406128 C 1452.640503 576.931152 1462.290649 572.865112 1467.25769 570.370605 C 1472.224609 567.876099 1481.061035 562.901123 1486.894287 559.315308 C 1492.727417 555.729492 1498.737549 551.632324 1500.25 550.210693 C 1501.762451 548.789063 1503 546.82019 1503 545.835449 C 1503 544.772827 1499.320923 541.143066 1493.947754 536.904541 C 1488.968994 532.977295 1482.393311 526.667114 1479.335083 522.881958 C 1475.995605 518.748657 1473.017578 516 1471.87915 516 C 1470.83667 516 1466.724854 518.740723 1462.741821 522.090454 C 1458.758789 525.440186 1452.349976 530.542236 1448.5 533.428223 C 1444.650024 536.314331 1436.550049 541.991333 1430.5 546.043823 C 1424.449951 550.096313 1414.775024 556.155273 1409 559.508301 C 1403.224976 562.861328 1393.775024 567.687134 1388 570.232422 C 1382.224976 572.777588 1372.775024 576.857788 1367 579.299561 C 1360.519775 582.039429 1356.375854 584.36499 1356.175781 585.374268 C 1355.98584 586.332031 1356.814453 587.417725 1358.175781 587.994873 C 1359.589722 588.59436 1371.27063 588.831543 1388 588.600464 Z M 1180 573.553711 C 1182.474976 573.226196 1187.284302 572.555786 1190.687256 572.063843 C 1194.09021 571.572021 1197.62915 570.747314 1198.551636 570.231079 C 1199.474121 569.714844 1201.442993 566.189087 1202.92688 562.39624 C 1204.410767 558.603271 1207.484497 551.984619 1209.757202 547.687866 C 1212.030029 543.391235 1213.639771 539.224854 1213.334473 538.429321 C 1213.029175 537.633667 1211.816528 536.75647 1210.639648 536.47998 C 1209.462891 536.203491 1204.072021 537.32251 1198.660034 538.966797 C 1193.248169 540.610962 1185.373169 542.637451 1181.160034 543.469971 C 1176.947021 544.302612 1172.069946 545.71582 1170.322144 546.610474 C 1168.574463 547.505127 1166.597656 549.557129 1165.929443 551.17041 C 1164.974243 553.47644 1164.977295 555.001221 1165.943848 558.301758 C 1166.619995 560.61084 1168.314453 564.525024 1169.709229 567 C 1171.104126 569.474976 1172.977661 572.096069 1173.872681 572.824707 C 1174.969116 573.717285 1176.968018 573.955078 1180 573.553711 Z M 1206.109375 515.775513 C 1207.974243 515.513672 1215.280273 512.523804 1222.345093 509.131348 C 1229.410034 505.738892 1240.459473 499.39209 1246.899414 495.027222 C 1253.339478 490.662354 1262.499023 483.451294 1267.253906 479.002441 C 1272.008911 474.553711 1278.766846 467.445679 1282.271729 463.206909 C 1285.776611 458.96814 1291.363037 451.449951 1294.686279 446.5 C 1298.009399 441.550049 1303.580322 432.099976 1307.06604 425.5 C 1310.551758 418.900024 1313.992798 411.791992 1314.712646 409.704468 C 1315.596069 407.142822 1315.708252 405.323242 1315.057739 404.107788 C 1314.273682 402.642822 1312.265747 402.179077 1304.296875 401.622314 C 1298.908569 401.24585 1291.574951 400.329712 1288 399.586548 C 1284.425049 398.843262 1279.117676 397.18457 1276.205933 395.900513 C 1272.17981 394.125 1270.503296 393.821045 1269.205933 394.631348 C 1268.2677 395.217407 1266.048706 399.927612 1264.274902 405.098389 C 1262.501221 410.269287 1259.624512 417.875 1257.882324 422 C 1256.140137 426.125 1253.026245 433.324951 1250.962646 438 C 1248.899048 442.675049 1244.189087 451.900024 1240.496094 458.5 C 1236.802979 465.099976 1231.3125 474.294067 1228.294922 478.931274 C 1225.277466 483.568481 1221.522705 488.968506 1219.95105 490.931274 C 1218.379517 492.894043 1214.064575 498.324951 1210.362427 503 C 1206.660156 507.675049 1203.425781 512.569092 1203.174927 513.875854 C 1202.754272 516.066772 1202.982544 516.2146 1206.109375 515.775513 Z"/>
</svg>
